<svg data-v-0dd9719b="" version="1.0" xmlns="http://www.w3.org/2000/svg" xmlns:xlink="http://www.w3.org/1999/xlink" width="100%" height="100%" viewBox="0 0 340.000000 250.000000" preserveAspectRatio="xMidYMid meet" color-interpolation-filters="sRGB" style="margin: auto;"> <rect data-v-0dd9719b="" x="0" y="0" width="100%" height="100%" fill="#fff" fill-opacity="1" class="background"></rect> <rect data-v-0dd9719b="" x="0" y="0" width="100%" height="100%" fill="url(#watermark)" fill-opacity="1" class="watermarklayer"></rect> <g data-v-0dd9719b="" fill="#1761b7" class="icon-text-wrapper icon-svg-group iconsvg" transform="translate(82.83999633789062,75.19523620609581)"><g class="iconsvg-imagesvg" transform="translate(57.160003662109375,0)"><g><rect fill="#1761b7" fill-opacity="0" stroke-width="2" x="0" y="0" width="60" height="61.18952435343069" class="image-rect"></rect> <svg x="0" y="0" width="60" height="61.18952435343069" filtersec="colorsb4283238058" class="image-svg-svg primary" style="overflow: visible;"><svg xmlns="http://www.w3.org/2000/svg" viewBox="0.07167434692382812 0.001617431640625 169.84832763671875 173.21649169921875"><title>资源 89</title><g><g><path d="M123.61 10.1C97.79 8.41 75.56 16 58 35 45 49.11 37.9 66.12 37.75 85.33c-.18 23.2 8.34 43.05 25.84 58.61 17.15 15.25 37.55 20.9 61 19.07-15.93 13.78-66 17.15-96.94-12.63-34-32.77-37.09-85.78-6.33-120.79C52.77-6.32 102.47-5.21 123.61 10.1z" fill="#1761b7"></path><path d="M154.28 132.4C142 147.21 113.83 152.24 92.53 144c-24.83-9.64-40-33.93-38.69-62C55 57.44 73.61 34.57 98.12 27.61c20.19-5.72 47.11.61 56 13.8-19.09-5-35.76-1.55-49.55 12.12-10.2 10.12-14 22.65-13.28 36.92 1.51 29.35 25.85 45.93 62.99 41.95z" fill="#1761b7"></path><path d="M139 55.41c17.47.1 30.91 13.67 30.92 31.23s-14.16 32-31.44 31.85a32 32 0 0 1-31.81-32.37C106.91 68.66 121 55.3 139 55.41z" fill="#fe2c5b"></path></g></g></svg></svg> <!----></g></g> <g transform="translate(0,68.18952560424805)"><g data-gra="path-name" fill-rule="" class="tp-name iconsvg-namesvg"><g transform="scale(1)"><g><path d="M28.64-30.71L28.64 0 24.46 0 24.46-13.97 7.91-13.97 7.91 0 3.73 0 3.73-30.71 7.91-30.71 7.91-17.02 24.46-17.02 24.46-30.71 28.64-30.71ZM48.08-3.3L48.08-3.3Q49.98-3.3 51.48-3.94 52.98-4.59 54.02-5.74 55.06-6.9 55.61-8.51 56.16-10.12 56.16-12.05L56.16-12.05 56.16-30.71 60.29-30.71 60.29-12.05Q60.29-9.39 59.45-7.12 58.6-4.84 57.02-3.18 55.45-1.52 53.18-0.58 50.9 0.36 48.08 0.36L48.08 0.36Q45.25 0.36 42.97-0.58 40.7-1.52 39.12-3.18 37.53-4.84 36.68-7.12 35.84-9.39 35.84-12.05L35.84-12.05 35.84-30.71 39.97-30.71 39.97-12.07Q39.97-10.14 40.52-8.53 41.07-6.92 42.11-5.77 43.15-4.61 44.66-3.95 46.17-3.3 48.08-3.3ZM72.36-30.71L72.36 0 68.2 0 68.2-30.71 72.36-30.71ZM113.77-30.71L113.77 0 109.59 0 109.59-13.97 93.04-13.97 93.04 0 88.86 0 88.86-30.71 93.04-30.71 93.04-17.02 109.59-17.02 109.59-30.71 113.77-30.71ZM134.26-30.71L146.54 0 143.33 0Q142.77 0 142.43-0.28 142.08-0.56 141.91-0.99L141.91-0.99 139.04-8.4 125.26-8.4 122.39-0.99Q122.24-0.6 121.87-0.3 121.51 0 120.97 0L120.97 0 117.76 0 130.04-30.71 134.26-30.71ZM131.24-23.88L126.42-11.4 137.88-11.4 133.06-23.9Q132.59-25.06 132.14-26.79L132.14-26.79Q131.9-25.91 131.68-25.17 131.45-24.43 131.24-23.88L131.24-23.88ZM178.05-15.35L178.05-15.35Q178.05-11.9 176.96-9.01 175.86-6.13 173.87-4.05 171.88-1.97 169.08-0.83 166.28 0.32 162.9 0.32L162.9 0.32Q159.51 0.32 156.72-0.83 153.94-1.97 151.94-4.05 149.95-6.13 148.86-9.01 147.76-11.9 147.76-15.35L147.76-15.35Q147.76-18.8 148.86-21.68 149.95-24.56 151.94-26.65 153.94-28.74 156.72-29.9 159.51-31.06 162.9-31.06L162.9-31.06Q166.28-31.06 169.08-29.9 171.88-28.74 173.87-26.65 175.86-24.56 176.96-21.68 178.05-18.8 178.05-15.35ZM173.78-15.35L173.78-15.35Q173.78-18.18 173.01-20.43 172.24-22.68 170.83-24.23 169.41-25.78 167.4-26.62 165.38-27.46 162.9-27.46L162.9-27.46Q160.43-27.46 158.42-26.62 156.4-25.78 154.98-24.23 153.55-22.68 152.78-20.43 152.01-18.18 152.01-15.35L152.01-15.35Q152.01-12.52 152.78-10.28 153.55-8.04 154.98-6.48 156.4-4.93 158.42-4.1 160.43-3.28 162.9-3.28L162.9-3.28Q165.38-3.28 167.4-4.1 169.41-4.93 170.83-6.48 172.24-8.04 173.01-10.28 173.78-12.52 173.78-15.35Z" transform="translate(-3.7300000190734863, 31.059999465942383)"></path></g> <!----> <!----> <!----> <!----> <!----> <!----> <!----></g></g> <!----></g></g><defs v-gra="od"></defs></svg>